<?xml version="1.0" standalone="no"?>
<!DOCTYPE svg PUBLIC "-//W3C//DTD SVG 20010904//EN"
 "http://www.w3.org/TR/2001/REC-SVG-20010904/DTD/svg10.dtd">
<svg version="1.0" xmlns="http://www.w3.org/2000/svg"
 width="1712.000000pt" height="1712.000000pt" viewBox="0 0 1712.000000 1712.000000"
 preserveAspectRatio="xMidYMid meet">
<metadata>
Created by potrace 1.11, written by Peter Selinger 2001-2013
</metadata>
<g transform="translate(0.000000,1712.000000) scale(0.100000,-0.100000)"
fill="#000000" stroke="none">
<path d="M7080 13830 l0 -280 65 0 65 0 0 115 0 115 130 0 130 0 0 -115 0
-115 65 0 65 0 0 280 0 280 -65 0 -65 0 0 -110 0 -110 -130 0 -130 0 0 110 0
110 -65 0 -65 0 0 -280z"/>
<path d="M7670 14055 l0 -55 90 0 90 0 0 -225 0 -225 65 0 65 0 0 225 0 225
90 0 90 0 0 55 0 55 -245 0 -245 0 0 -55z"/>
<path d="M8230 13830 l0 -280 60 0 60 0 2 163 3 162 80 -132 c75 -125 82 -133
111 -133 30 0 36 7 113 137 l81 137 0 -167 0 -167 60 0 60 0 0 281 0 280 -52
-3 -53 -3 -80 -136 c-44 -74 -90 -153 -103 -174 l-23 -38 -106 176 -106 177
-53 0 -54 0 0 -280z"/>
<path d="M9000 13830 l0 -280 205 0 205 0 0 50 0 50 -140 0 -140 0 0 230 0
230 -65 0 -65 0 0 -280z"/>
<path d="M420 11275 l0 -1395 2300 0 2300 0 0 1395 0 1395 -2300 0 -2300 0 0
-1395z m3895 1220 c50 -49 15 -135 -55 -135 -41 0 -80 39 -80 80 0 41 39 80
80 80 19 0 40 -9 55 -25z m219 14 c35 -16 52 -61 37 -98 -12 -28 -47 -51 -77
-51 -23 0 -74 55 -74 80 0 25 51 80 74 80 8 0 26 -5 40 -11z m72 -665 c9 -20
12 -40 7 -44 -4 -3 -414 -179 -910 -391 -496 -211 -899 -387 -895 -391 6 -6
408 -169 1469 -595 l363 -145 -16 -36 c-8 -20 -16 -37 -17 -38 -1 -2 -220 85
-487 192 -267 107 -700 281 -962 386 l-477 191 -78 -32 c-67 -29 -879 -375
-1573 -671 -118 -51 -225 -96 -237 -101 -20 -7 -25 -4 -38 28 -8 20 -13 38
-11 40 2 2 294 128 647 279 354 151 762 325 907 387 144 61 262 114 262 117 0
3 -414 171 -919 373 l-919 369 16 39 c8 22 20 38 26 35 369 -150 1908 -766
1916 -766 9 0 689 288 1600 679 168 71 306 130 308 131 2 0 10 -16 18 -36z"/>
<path d="M12600 12343 c-27 -10 -65 -37 -96 -68 -88 -87 -84 -48 -84 -895 0
-847 -4 -808 83 -895 92 -92 -8 -85 1292 -85 1303 0 1210 -6 1301 85 89 88 85
45 82 921 -3 758 -3 759 -25 800 -24 45 -84 103 -135 131 -31 17 -96 18 -1203
20 -1046 1 -1175 0 -1215 -14z m1390 -570 c-32 -93 -107 -309 -167 -480 l-108
-313 -72 0 c-40 0 -73 3 -73 8 0 6 281 815 316 910 l16 42 73 0 73 0 -58 -167z
m-450 -147 c0 -51 -3 -65 -17 -71 -10 -4 -79 -29 -153 -57 -74 -27 -139 -53
-143 -57 -4 -4 64 -34 153 -66 l160 -57 0 -65 c0 -63 -1 -65 -22 -59 -13 3
-122 43 -243 89 l-220 84 -3 70 -3 70 238 91 c131 50 241 91 246 92 4 0 7 -29
7 -64z m770 -28 l241 -91 -3 -70 -3 -70 -220 -84 c-121 -46 -230 -86 -242 -89
-22 -6 -23 -4 -23 59 l0 65 160 57 c89 32 157 62 153 66 -4 4 -69 30 -143 57
-74 28 -143 53 -152 57 -15 6 -18 20 -18 71 0 35 2 64 5 64 3 0 113 -41 245
-92z"/>
<path d="M8045 11716 c-66 -21 -138 -62 -178 -102 -102 -101 -133 -277 -81
-459 3 -11 -16 15 -43 57 -174 278 -401 418 -680 419 -204 0 -366 -49 -543
-166 -84 -56 -198 -170 -255 -254 -209 -315 -157 -726 149 -1185 110 -166 228
-267 394 -336 l52 -22 0 -69 c0 -56 -5 -79 -30 -128 -40 -77 -68 -160 -76
-222 -6 -43 -10 -49 -30 -49 -29 0 -64 -44 -64 -80 0 -33 35 -80 60 -80 14 0
20 -10 25 -42 13 -84 46 -192 80 -260 l35 -69 0 -735 c0 -829 -1 -811 75 -969
73 -150 179 -256 329 -331 156 -77 105 -74 1256 -74 1151 0 1100 -3 1255 74
195 97 332 264 385 471 19 75 20 111 20 815 l0 737 40 86 c42 88 80 218 80
269 0 20 5 28 18 28 30 0 62 42 62 81 0 38 -33 79 -62 79 -12 0 -20 16 -28 56
-7 31 -20 80 -30 109 -16 47 -16 59 -4 131 82 469 115 814 95 1001 -25 238
-87 380 -225 518 -141 140 -263 192 -476 202 -191 9 -387 -40 -611 -152 -62
-32 -115 -53 -116 -48 -7 20 -107 191 -151 258 -148 223 -323 383 -474 434
-71 24 -189 27 -253 7z m1999 -1653 c3 -27 9 -122 13 -213 5 -141 4 -163 -8
-154 -8 6 -38 30 -67 52 -66 51 -197 116 -277 138 -33 9 -106 18 -162 21
l-103 6 288 97 c158 54 292 98 298 99 6 0 14 -20 18 -46z m-966 -258 c-3 -3
-27 -21 -54 -40 -158 -112 -271 -277 -320 -465 l-17 -66 -46 24 c-40 21 -57
23 -131 20 -60 -3 -93 -9 -110 -21 -38 -27 -46 -21 -59 41 -16 70 -79 208
-126 273 l-34 48 32 6 c277 48 644 125 777 164 67 19 97 25 88 16z m571 -35
c128 -31 231 -89 329 -186 l82 -83 0 -401 0 -401 -82 -83 c-214 -212 -518
-265 -783 -136 -178 87 -300 226 -362 415 -23 69 -26 97 -26 205 0 108 3 136
26 205 62 189 183 328 362 415 143 70 300 87 454 50z m-2454 -182 c103 -17
593 -17 729 0 l99 12 30 -27 c54 -50 123 -168 153 -259 26 -79 29 -103 29
-214 0 -111 -3 -135 -29 -214 -58 -175 -183 -319 -351 -402 -117 -58 -211 -78
-335 -71 -196 11 -379 101 -495 244 l-45 55 0 388 0 389 51 61 c34 42 56 59
67 56 9 -3 53 -11 97 -18z m1406 -454 c42 -21 67 -60 79 -122 42 -225 108
-358 242 -489 113 -112 230 -177 386 -214 72 -18 108 -20 212 -16 69 2 152 12
185 21 81 22 212 87 277 138 29 22 59 46 67 52 11 9 13 -17 8 -169 -6 -202
-15 -247 -76 -370 -76 -151 -173 -249 -325 -325 -122 -62 -116 -69 -116 125 0
181 -7 212 -56 260 -61 57 -19 55 -963 55 -589 0 -879 -3 -898 -11 -38 -14
-92 -67 -109 -106 -10 -23 -14 -80 -14 -202 l0 -170 -41 14 c-114 41 -241 131
-314 223 -55 69 -119 195 -141 277 -16 60 -33 405 -20 405 3 0 33 -22 66 -48
72 -58 201 -124 290 -149 49 -13 103 -18 215 -18 130 0 160 3 225 23 224 71
396 216 496 417 44 89 84 221 84 277 0 109 135 177 241 122z m-583 -1422 c12
-12 21 -41 25 -81 21 -194 190 -292 481 -278 246 11 373 102 395 282 5 48 13
72 26 81 26 19 52 17 75 -6 23 -23 25 -63 9 -142 -43 -202 -214 -318 -494
-334 -354 -21 -584 125 -611 389 -6 57 -4 67 15 86 26 26 55 27 79 3z"/>
<path d="M9459 8818 c-104 -60 -103 -218 1 -277 76 -43 182 -15 222 59 26 47
21 134 -10 177 -44 62 -144 82 -213 41z"/>
<path d="M7499 8818 c-74 -42 -100 -142 -58 -218 61 -109 231 -105 284 6 23
48 17 130 -13 171 -44 62 -144 82 -213 41z"/>
<path d="M11423 8820 c-159 -32 -232 -199 -147 -337 50 -81 168 -122 272 -93
40 10 122 72 122 91 0 5 -21 19 -46 32 l-46 23 -28 -28 c-31 -31 -79 -37 -124
-16 -53 23 -78 100 -53 161 31 73 121 96 175 44 l29 -28 47 22 c25 13 46 26
46 30 0 3 -9 18 -21 33 -43 54 -141 83 -226 66z"/>
<path d="M11847 8816 c-42 -9 -67 -22 -90 -45 -28 -28 -32 -38 -32 -87 0 -48
4 -59 28 -80 27 -23 44 -29 162 -55 50 -12 61 -18 63 -36 6 -44 -83 -56 -176
-24 l-53 18 -19 -38 c-11 -21 -20 -40 -20 -43 0 -2 21 -13 48 -23 33 -13 74
-18 137 -18 77 0 96 4 132 24 104 59 89 191 -23 219 -22 6 -66 16 -99 23 -48
11 -61 18 -63 35 -5 36 21 47 95 41 38 -3 77 -8 88 -12 17 -5 24 1 38 30 21
44 17 52 -31 64 -69 17 -127 20 -185 7z"/>
<path d="M12300 8823 c-95 -17 -150 -66 -150 -136 0 -73 42 -109 148 -128 71
-12 112 -28 112 -43 -1 -54 -113 -59 -226 -10 -13 6 -47 -77 -36 -88 4 -4 36
-15 72 -24 160 -41 304 16 304 120 0 74 -40 108 -149 126 -69 12 -115 32 -115
50 0 4 7 16 16 24 21 21 125 21 165 1 l30 -16 19 43 c10 24 16 46 12 49 -22
20 -153 41 -202 32z"/>
<path d="M4957 8606 c-49 -18 -67 -34 -84 -73 -17 -42 -17 -87 1 -121 8 -15
67 -79 131 -142 l116 -115 123 125 c106 108 124 131 130 166 22 131 -130 218
-237 134 -24 -19 -25 -19 -42 0 -10 11 -34 24 -54 30 -43 12 -37 12 -84 -4z"/>
<path d="M3280 7943 c-184 -51 -336 -95 -337 -97 -2 -2 31 -151 72 -332 42
-181 114 -495 160 -699 46 -203 136 -599 200 -880 230 -1010 207 -930 299
-1051 80 -106 196 -187 330 -230 56 -17 129 -29 250 -40 248 -21 780 -75 784
-79 2 -2 -49 -84 -113 -182 -65 -98 -219 -333 -344 -523 -124 -190 -238 -363
-254 -385 -119 -168 -166 -266 -188 -389 -25 -148 10 -334 85 -449 19 -29 302
-392 629 -807 l594 -755 -1478 -3 -1479 -2 0 -230 0 -230 6120 0 6120 0 0 225
c0 124 -1 226 -2 227 -2 1 -744 5 -1649 8 l-1646 5 615 780 c425 540 623 798
642 840 78 170 79 379 1 557 -11 26 -116 193 -234 370 -117 178 -238 361 -269
408 -30 47 -117 179 -192 294 -75 114 -135 211 -132 214 6 5 638 70 991 101
246 22 333 43 445 108 90 53 197 162 243 250 41 79 39 72 211 828 64 281 182
798 262 1150 205 898 205 897 201 901 -7 8 -690 195 -694 191 -2 -3 -157 -434
-344 -958 -188 -525 -358 -1001 -378 -1059 l-38 -105 -821 -3 -821 -2 28 -43
c16 -23 41 -70 55 -104 58 -139 56 -75 56 -1486 l0 -1298 109 -135 110 -136
-54 -86 c-29 -48 -258 -422 -508 -832 -481 -787 -504 -820 -492 -698 3 29 12
199 20 378 8 179 17 353 20 388 l6 62 -1885 0 c-1037 0 -1887 -3 -1889 -7 -2
-5 0 -60 4 -123 3 -63 9 -180 13 -260 4 -80 8 -179 11 -220 2 -41 7 -119 10
-172 l6 -98 -159 0 -159 0 -185 303 c-623 1017 -828 1356 -828 1365 0 6 110
147 245 313 l245 303 0 1116 c0 763 3 1135 11 1175 14 76 53 175 96 242 l33
53 -821 2 -821 3 -364 1020 c-430 1205 -393 1105 -407 1104 -7 -1 -163 -44
-347 -96z m6615 -6530 c123 -35 253 -105 328 -176 65 -62 110 -128 122 -179
l7 -28 -1765 0 c-1136 0 -1768 3 -1772 10 -12 20 51 126 111 185 98 98 223
162 384 196 80 17 161 18 1295 16 l1210 -2 80 -22z"/>
</g>
</svg>
